<?plantuml 1.2026.1?><svg xmlns="http://www.w3.org/2000/svg" xmlns:xlink="http://www.w3.org/1999/xlink" contentStyleType="text/css" data-diagram-type="DESCRIPTION" height="271px" preserveAspectRatio="none" style="width:1021px;height:271px;background:#FFFFFF;" version="1.1" viewBox="0 0 1021 271" width="1021px" zoomAndPan="magnify"><defs/><g><!--cluster Quarkus Application--><g class="cluster" data-qualified-name="Quarkus Application" data-source-line="2" id="ent0002"><rect fill="none" height="237.59" rx="2.5" ry="2.5" style="stroke:#181818;stroke-width:1;" width="573" x="7" y="7"/><text fill="#000000" font-family="sans-serif" font-size="14" font-weight="bold" lengthAdjust="spacing" textLength="160.002" x="213.499" y="21.9951">Quarkus Application</text></g><!--cluster External Systems--><g class="cluster" data-qualified-name="External Systems" data-source-line="7" id="ent0010"><path d="M631.6433,160.716 C638.0729,149.0237 647.2887,150.0662 654.077,160.3498 C661.6084,147.1427 670.4883,142.8255 681.7774,156.4739 C688.3695,145.0082 699.4791,146.0821 706.5845,155.875 C715.4633,143.3673 725.3863,142.9136 732.6364,157.4443 C738.3869,144.9542 747.6218,144.489 756.3537,154.2691 C764.9454,142.8803 774.9603,142.8945 781.0797,156.6957 C786.2277,142.4745 797.5117,144.1058 806.0035,153.1069 C813.7013,139.4911 824.413,141.9561 831.5669,153.6561 C841.247,142.2611 851.6743,139.9785 860.4875,154.6191 C867.785,143.4073 879.0395,144.7206 883.7998,157.1238 C890.7624,147.1628 903.2867,144.4323 909.1521,158.2915 C915.4875,147.2154 927.4517,145.1062 935.0311,156.8828 C944.4901,146.039 951.7011,146.9123 958.7934,159.3032 C970.777,143.8617 982.7579,150.0597 990,164.29 C991.4107,165.343 991.4251,166.4385 990.1246,167.5937 C1010.6846,172.6963 1014.0258,189.7672 999.8419,204.1144 C1011.1018,224.087 1008.5205,239.9218 983,244.59 C984.8819,243.1223 986.6205,243.3851 987.3368,245.8692 C978.0862,260.6901 967.6576,260.0572 959.1498,245.1646 C953.2029,257.3833 942.4071,259.6108 933.7833,248.0161 C927.8115,261.8365 918.874,261.5139 910.034,250.7916 C900.9245,262.5716 891.9402,262.8702 883.9877,249.5891 C876.2433,264.1707 863.2771,261.954 856.1843,248.9327 C849.9666,260.471 842.1358,261.0086 834.235,250.6172 C825.6966,262.5383 813.8501,263.4017 805.7774,250.092 C797.1696,261.1918 787.6496,262.005 780.3552,248.7225 C773.3755,258.7868 763.9213,260.3443 757.1468,248.505 C750.8743,259.702 740.8832,261.7078 732.025,251.5462 C724.3961,261.0368 712.5344,260.1517 707.2116,248.8007 C697.8975,260.1946 686.3485,261.2302 679.8033,245.9551 C672.9137,258.2045 663.0416,257.6666 655.9793,246.1282 C640.7307,257.9807 628.0367,256.1282 620,237.59 C620.9201,236.9958 621.565,237.5028 621.682,238.4604 C599.1442,233.4313 598.5349,214.3319 613.3145,200.9731 C596.8827,181.9055 601.4219,163.1963 627,157.29 C630.1415,155.874 632.0359,157.3422 631.6433,160.716" fill="none" style="stroke:#181818;stroke-width:1;"/><text fill="#000000" font-family="sans-serif" font-size="14" font-weight="bold" lengthAdjust="spacing" textLength="137.4229" x="736.2886" y="175.2851">External Systems</text></g><!--entity Java DSL or YAML Definition--><g class="entity" data-qualified-name="Quarkus Application.Java DSL or YAML Definition" data-source-line="3" id="ent0003"><rect fill="#F1F1F1" height="36.2969" rx="2.5" ry="2.5" style="stroke:#181818;stroke-width:0.5;" width="214.9609" x="22.52" y="42"/><text fill="#000000" font-family="sans-serif" font-size="14" lengthAdjust="spacing" textLength="194.9609" x="32.52" y="64.9951">Java DSL or YAML Definition</text></g><!--entity Quarkus Flow Engine--><g class="entity" data-qualified-name="Quarkus Application.Quarkus Flow Engine" data-source-line="3" id="ent0004"><rect fill="#F1F1F1" height="36.2969" rx="2.5" ry="2.5" style="stroke:#181818;stroke-width:0.5;" width="167.3418" x="396.33" y="42"/><text fill="#000000" font-family="sans-serif" font-size="14" lengthAdjust="spacing" textLength="147.3418" x="406.33" y="64.9951">Quarkus Flow Engine</text></g><!--entity CDI Beans / Services--><g class="entity" data-qualified-name="Quarkus Application.CDI Beans . Services" data-source-line="4" id="ent0006"><rect fill="#F1F1F1" height="36.2969" rx="2.5" ry="2.5" style="stroke:#181818;stroke-width:0.5;" width="164.751" x="203.62" y="192.29"/><text fill="#000000" font-family="sans-serif" font-size="14" lengthAdjust="spacing" textLength="144.751" x="213.62" y="215.2851">CDI Beans / Services</text></g><!--entity LangChain4j Agents--><g class="entity" data-qualified-name="Quarkus Application.LangChain4j Agents" data-source-line="5" id="ent0008"><rect fill="#F1F1F1" height="36.2969" rx="2.5" ry="2.5" style="stroke:#181818;stroke-width:0.5;" width="160.1094" x="402.95" y="192.29"/><text fill="#000000" font-family="sans-serif" font-size="14" lengthAdjust="spacing" textLength="140.1094" x="412.95" y="215.2851">LangChain4j Agents</text></g><!--entity Messaging (Kafka/AMQP)--><g class="entity" data-qualified-name="External Systems.Messaging .Kafka.AMQP." data-source-line="8" id="ent0011"><rect fill="#F1F1F1" height="36.2969" rx="2.5" ry="2.5" style="stroke:#181818;stroke-width:0.5;" width="194.9795" x="779.51" y="192.29"/><text fill="#000000" font-family="sans-serif" font-size="14" lengthAdjust="spacing" textLength="174.9795" x="789.51" y="215.2851">Messaging (Kafka/AMQP)</text></g><!--entity REST APIs--><g class="entity" data-qualified-name="External Systems.REST APIs" data-source-line="9" id="ent0012"><rect fill="#F1F1F1" height="36.2969" rx="2.5" ry="2.5" style="stroke:#181818;stroke-width:0.5;" width="89.9043" x="655.05" y="192.29"/><text fill="#000000" font-family="sans-serif" font-size="14" lengthAdjust="spacing" textLength="69.9043" x="665.05" y="215.2851">REST APIs</text></g><!--link Java DSL or YAML Definition to Quarkus Flow Engine--><g class="link" data-entity-1="ent0003" data-entity-2="ent0004" data-link-type="dependency" data-source-line="3" id="lnk5"><path d="M237.87,60.14 C288.78,60.14 342.64,60.14 390.1,60.14" fill="none" id="Java DSL or YAML Definition-to-Quarkus Flow Engine" style="stroke:#181818;stroke-width:1;"/><polygon fill="#181818" points="396.1,60.14,387.1,56.14,391.1,60.14,387.1,64.14,396.1,60.14" style="stroke:#181818;stroke-width:1;"/><text fill="#000000" font-family="sans-serif" font-size="13" lengthAdjust="spacing" textLength="122.0654" x="255.9" y="53.2069">Build-time compile</text></g><!--link Quarkus Flow Engine to CDI Beans / Services--><g class="link" data-entity-1="ent0004" data-entity-2="ent0006" data-link-type="dependency" data-source-line="4" id="lnk7"><path d="M452.1482,82.2242 C432.8982,96.8142 409.52,114.55 385,133.29 C358.81,153.31 333.5706,172.7351 313.5306,188.1951" fill="none" id="Quarkus Flow Engine-CDI Beans / Services" style="stroke:#181818;stroke-width:1;"/><polygon fill="#181818" points="456.93,78.6,447.3412,80.8485,452.9452,81.6202,452.1735,87.2241,456.93,78.6" style="stroke:#181818;stroke-width:1;"/><polygon fill="#181818" points="308.78,191.86,318.3492,189.5297,312.7389,188.8059,313.4627,183.1956,308.78,191.86" style="stroke:#181818;stroke-width:1;"/></g><!--link Quarkus Flow Engine to LangChain4j Agents--><g class="link" data-entity-1="ent0004" data-entity-2="ent0008" data-link-type="dependency" data-source-line="5" id="lnk9"><path d="M480.4798,84.7388 C481.0498,113.2788 481.9502,157.3412 482.5202,185.8712" fill="none" id="Quarkus Flow Engine-LangChain4j Agents" style="stroke:#181818;stroke-width:1;"/><polygon fill="#181818" points="480.36,78.74,476.5405,87.8181,480.4598,83.739,484.5389,87.6583,480.36,78.74" style="stroke:#181818;stroke-width:1;"/><polygon fill="#181818" points="482.64,191.87,486.4594,182.7919,482.5401,186.871,478.461,182.9517,482.64,191.87" style="stroke:#181818;stroke-width:1;"/></g><!--link Quarkus Flow Engine to External Systems--><g class="link" data-entity-1="ent0004" data-entity-2="ent0010" data-link-type="dependency" data-source-line="11" id="lnk13"><path d="M511.81,78.78 C533.09,91.76 560.64,110.98 580,133.29 C592.135,147.275 601.9,165.5775 608.7438,180.735 C609.5992,182.6297 610.409,184.4752 611.1721,186.2571 C611.3629,186.7025 611.5508,187.144 611.7357,187.5813 C611.7819,187.6906 609.4972,182.2709 609.543,182.3797" fill="none" id="Quarkus Flow Engine-to-External Systems" style="stroke:#181818;stroke-width:1;"/><polygon fill="#181818" points="611.8738,187.9084,612.0634,178.0614,609.9315,183.3011,604.6918,181.1692,611.8738,187.9084" style="stroke:#181818;stroke-width:1;"/><text fill="#000000" font-family="sans-serif" font-size="13" lengthAdjust="spacing" textLength="84.0112" x="571" y="121.3569">Orchestrates</text></g><?plantuml-src XOz1IyD048Nl-HMFdFGGUl4a8gHjX6g2hV4Y9OTXEqtNR6R3xgPQnFzk4jI3A9xdlU_Dvnij7JbgeMpRMM49PJWPXcCLI6h3qVS1yQOdr_GUQTSPhIXeAp7U8c1xIqV2iinX7PxI8iUIzrhqcAYGN6FxLRqnzWMPr5gumYNclJQx9EYMfmVqi8S_mbV9o5aiLvWpYSSC9RkZLkohVphv8B8ua9QBPwJrO38qtYDbRBz3dBq6Ta86vSa7RlsdKC7Uqm2fSNP7-uPcQR5PdqzB3rdvY7IzcYY_xqwpFycZxxrJ1_R1KM3_0G00?></g></svg>