<?plantuml 1.2026.1?><svg xmlns="http://www.w3.org/2000/svg" xmlns:xlink="http://www.w3.org/1999/xlink" contentStyleType="text/css" data-diagram-type="DESCRIPTION" height="271px" preserveAspectRatio="none" style="width:960px;height:271px;background:#FFFFFF;" version="1.1" viewBox="0 0 960 271" width="960px" zoomAndPan="magnify"><defs/><g><!--cluster Quarkus Application--><g class="cluster" data-qualified-name="Quarkus Application" data-source-line="2" id="ent0002"><rect fill="none" height="237.59" rx="2.5" ry="2.5" style="stroke:#181818;stroke-width:1;" width="512" x="7" y="7"/><text fill="#000000" font-family="sans-serif" font-size="14" font-weight="bold" lengthAdjust="spacing" textLength="160.002" x="182.999" y="21.9951">Quarkus Application</text></g><!--cluster External Systems--><g class="cluster" data-qualified-name="External Systems" data-source-line="7" id="ent0010"><path d="M570.6433,160.716 C577.0729,149.0237 586.2887,150.0662 593.077,160.3498 C600.6084,147.1427 609.4883,142.8255 620.7774,156.4739 C627.3695,145.0082 638.4791,146.0821 645.5845,155.875 C654.4633,143.3673 664.3863,142.9136 671.6364,157.4443 C677.3869,144.9542 686.6218,144.489 695.3537,154.2691 C703.9454,142.8803 713.9603,142.8945 720.0797,156.6957 C725.2277,142.4745 736.5117,144.1058 745.0035,153.1069 C752.7013,139.4911 763.413,141.9561 770.5669,153.6561 C780.247,142.2611 790.6743,139.9785 799.4875,154.6191 C806.785,143.4073 818.0395,144.7206 822.7998,157.1238 C829.7624,147.1628 842.2867,144.4323 848.1521,158.2915 C854.4875,147.2154 866.4517,145.1062 874.0311,156.8828 C883.4901,146.039 890.7011,146.9123 897.7934,159.3032 C909.777,143.8617 921.7579,150.0597 929,164.29 C930.4107,165.343 930.4251,166.4385 929.1246,167.5937 C949.6846,172.6963 953.0258,189.7672 938.8419,204.1144 C950.1018,224.087 947.5205,239.9218 922,244.59 C923.8819,243.1223 925.6205,243.3851 926.3368,245.8692 C917.0862,260.6901 906.6576,260.0572 898.1498,245.1646 C892.2029,257.3833 881.4071,259.6108 872.7833,248.0161 C866.8115,261.8365 857.874,261.5139 849.034,250.7916 C839.9245,262.5716 830.9402,262.8702 822.9877,249.5891 C815.2433,264.1707 802.2771,261.954 795.1843,248.9327 C788.9666,260.471 781.1358,261.0086 773.235,250.6172 C764.6966,262.5383 752.8501,263.4017 744.7774,250.092 C736.1696,261.1918 726.6496,262.005 719.3552,248.7225 C712.3755,258.7868 702.9213,260.3443 696.1468,248.505 C689.8743,259.702 679.8832,261.7078 671.025,251.5462 C663.3961,261.0368 651.5344,260.1517 646.2116,248.8007 C636.8975,260.1946 625.3485,261.2302 618.8033,245.9551 C611.9137,258.2045 602.0416,257.6666 594.9793,246.1282 C579.7307,257.9807 567.0367,256.1282 559,237.59 C559.9201,236.9958 560.565,237.5028 560.682,238.4604 C538.1442,233.4313 537.5349,214.3319 552.3145,200.9731 C535.8827,181.9055 540.4219,163.1963 566,157.29 C569.1415,155.874 571.0359,157.3422 570.6433,160.716" fill="none" style="stroke:#181818;stroke-width:1;"/><text fill="#000000" font-family="sans-serif" font-size="14" font-weight="bold" lengthAdjust="spacing" textLength="137.4229" x="675.2886" y="175.2851">External Systems</text></g><!--entity Java DSL Definition--><g class="entity" data-qualified-name="Quarkus Application.Java DSL Definition" data-source-line="3" id="ent0003"><rect fill="#F1F1F1" height="36.2969" rx="2.5" ry="2.5" style="stroke:#181818;stroke-width:0.5;" width="153.7314" x="23.13" y="42"/><text fill="#000000" font-family="sans-serif" font-size="14" lengthAdjust="spacing" textLength="133.7314" x="33.13" y="64.9951">Java DSL Definition</text></g><!--entity Quarkus Flow Engine--><g class="entity" data-qualified-name="Quarkus Application.Quarkus Flow Engine" data-source-line="3" id="ent0004"><rect fill="#F1F1F1" height="36.2969" rx="2.5" ry="2.5" style="stroke:#181818;stroke-width:0.5;" width="167.3418" x="335.33" y="42"/><text fill="#000000" font-family="sans-serif" font-size="14" lengthAdjust="spacing" textLength="147.3418" x="345.33" y="64.9951">Quarkus Flow Engine</text></g><!--entity CDI Beans / Services--><g class="entity" data-qualified-name="Quarkus Application.CDI Beans . Services" data-source-line="4" id="ent0006"><rect fill="#F1F1F1" height="36.2969" rx="2.5" ry="2.5" style="stroke:#181818;stroke-width:0.5;" width="164.751" x="142.62" y="192.29"/><text fill="#000000" font-family="sans-serif" font-size="14" lengthAdjust="spacing" textLength="144.751" x="152.62" y="215.2851">CDI Beans / Services</text></g><!--entity LangChain4j Agents--><g class="entity" data-qualified-name="Quarkus Application.LangChain4j Agents" data-source-line="5" id="ent0008"><rect fill="#F1F1F1" height="36.2969" rx="2.5" ry="2.5" style="stroke:#181818;stroke-width:0.5;" width="160.1094" x="341.95" y="192.29"/><text fill="#000000" font-family="sans-serif" font-size="14" lengthAdjust="spacing" textLength="140.1094" x="351.95" y="215.2851">LangChain4j Agents</text></g><!--entity Messaging (Kafka/AMQP)--><g class="entity" data-qualified-name="External Systems.Messaging .Kafka.AMQP." data-source-line="8" id="ent0011"><rect fill="#F1F1F1" height="36.2969" rx="2.5" ry="2.5" style="stroke:#181818;stroke-width:0.5;" width="194.9795" x="718.51" y="192.29"/><text fill="#000000" font-family="sans-serif" font-size="14" lengthAdjust="spacing" textLength="174.9795" x="728.51" y="215.2851">Messaging (Kafka/AMQP)</text></g><!--entity REST APIs--><g class="entity" data-qualified-name="External Systems.REST APIs" data-source-line="9" id="ent0012"><rect fill="#F1F1F1" height="36.2969" rx="2.5" ry="2.5" style="stroke:#181818;stroke-width:0.5;" width="89.9043" x="594.05" y="192.29"/><text fill="#000000" font-family="sans-serif" font-size="14" lengthAdjust="spacing" textLength="69.9043" x="604.05" y="215.2851">REST APIs</text></g><!--link Java DSL Definition to Quarkus Flow Engine--><g class="link" data-entity-1="ent0003" data-entity-2="ent0004" data-link-type="dependency" data-source-line="3" id="lnk5"><path d="M177.22,60.14 C224.89,60.14 280.05,60.14 328.94,60.14" fill="none" id="Java DSL Definition-to-Quarkus Flow Engine" style="stroke:#181818;stroke-width:1;"/><polygon fill="#181818" points="334.94,60.14,325.94,56.14,329.94,60.14,325.94,64.14,334.94,60.14" style="stroke:#181818;stroke-width:1;"/><text fill="#000000" font-family="sans-serif" font-size="13" lengthAdjust="spacing" textLength="122.0654" x="195.1" y="53.2069">Build-time compile</text></g><!--link Quarkus Flow Engine to CDI Beans / Services--><g class="link" data-entity-1="ent0004" data-entity-2="ent0006" data-link-type="dependency" data-source-line="4" id="lnk7"><path d="M391.1482,82.2242 C371.8982,96.8142 348.52,114.55 324,133.29 C297.81,153.31 272.5706,172.7351 252.5306,188.1951" fill="none" id="Quarkus Flow Engine-CDI Beans / Services" style="stroke:#181818;stroke-width:1;"/><polygon fill="#181818" points="395.93,78.6,386.3412,80.8485,391.9452,81.6202,391.1735,87.2241,395.93,78.6" style="stroke:#181818;stroke-width:1;"/><polygon fill="#181818" points="247.78,191.86,257.3492,189.5297,251.7389,188.8059,252.4627,183.1956,247.78,191.86" style="stroke:#181818;stroke-width:1;"/></g><!--link Quarkus Flow Engine to LangChain4j Agents--><g class="link" data-entity-1="ent0004" data-entity-2="ent0008" data-link-type="dependency" data-source-line="5" id="lnk9"><path d="M419.4798,84.7388 C420.0498,113.2788 420.9502,157.3412 421.5202,185.8712" fill="none" id="Quarkus Flow Engine-LangChain4j Agents" style="stroke:#181818;stroke-width:1;"/><polygon fill="#181818" points="419.36,78.74,415.5405,87.8181,419.4598,83.739,423.5389,87.6583,419.36,78.74" style="stroke:#181818;stroke-width:1;"/><polygon fill="#181818" points="421.64,191.87,425.4594,182.7919,421.5401,186.871,417.461,182.9517,421.64,191.87" style="stroke:#181818;stroke-width:1;"/></g><!--link Quarkus Flow Engine to External Systems--><g class="link" data-entity-1="ent0004" data-entity-2="ent0010" data-link-type="dependency" data-source-line="11" id="lnk13"><path d="M450.81,78.78 C472.09,91.76 499.64,110.98 519,133.29 C531.135,147.275 540.9,165.5775 547.7438,180.735 C548.5992,182.6297 549.409,184.4752 550.1721,186.2571 C550.3629,186.7025 550.5508,187.144 550.7357,187.5813 C550.7819,187.6906 548.4972,182.2709 548.543,182.3797" fill="none" id="Quarkus Flow Engine-to-External Systems" style="stroke:#181818;stroke-width:1;"/><polygon fill="#181818" points="550.8738,187.9084,551.0634,178.0614,548.9315,183.3011,543.6918,181.1692,550.8738,187.9084" style="stroke:#181818;stroke-width:1;"/><text fill="#000000" font-family="sans-serif" font-size="13" lengthAdjust="spacing" textLength="84.0112" x="510" y="121.3569">Orchestrates</text></g><?plantuml-src XOz1IyD044Rl-HKVEUaXzE99H4YR2jKMM-Ejv31if-cOpIJiRgf5_EycGJs8nVFCznxFLw8jEQfXchfjb3NauMGPZaqWBIr7FmV4cuvSrNcaRMl5K916Oxn7mFQUZeGiNoBZlQWCbmB9BRRVaplRl6AkfIWNkCQq4xjBWjGyYgNtuCppJJ9mPja2KoRrc21dTnJ3llXdi-m3PWSIlNf1MlO5_U8ZChRfTeZdRu6TaaL-ye5h_nMoOk-fXvIuUA1zHPDqjLbVZgQdUVwCTBqOANzxH-rlyj3xwCo1VN0Ks7y2?></g></svg>